<svg width="27" height="27" viewBox="0 0 27 27" fill="none" xmlns="http://www.w3.org/2000/svg">
<path d="M8.25 8.25H8.2625M0.750001 4.75L0.75 10.3431C0.75 10.9546 0.75 11.2604 0.819075 11.5481C0.880317 11.8032 0.981328 12.047 1.1184 12.2707C1.273 12.523 1.48919 12.7392 1.92157 13.1716L11.5074 22.7574C12.9924 24.2424 13.735 24.9849 14.5912 25.2632C15.3443 25.5079 16.1556 25.5079 16.9088 25.2632C17.765 24.9849 18.5076 24.2424 19.9926 22.7574L22.7574 19.9926C24.2424 18.5076 24.9849 17.765 25.2632 16.9088C25.5079 16.1556 25.5079 15.3443 25.2632 14.5912C24.9849 13.735 24.2424 12.9924 22.7574 11.5074L13.1716 1.92157C12.7392 1.48919 12.523 1.273 12.2707 1.1184C12.047 0.981328 11.8032 0.880317 11.5481 0.819075C11.2604 0.75 10.9546 0.75 10.3431 0.75L4.75 0.75C3.34987 0.75 2.6498 0.75 2.11502 1.02248C1.64462 1.26217 1.26217 1.64462 1.02248 2.11502C0.750001 2.6498 0.750001 3.34987 0.750001 4.75ZM8.875 8.25C8.875 8.59518 8.59518 8.875 8.25 8.875C7.90482 8.875 7.625 8.59518 7.625 8.25C7.625 7.90482 7.90482 7.625 8.25 7.625C8.59518 7.625 8.875 7.90482 8.875 8.25Z" stroke="#FF9549" stroke-width="1.5" stroke-linecap="round" stroke-linejoin="round"/>
</svg>
