<svg width="22" height="27" viewBox="0 0 22 27" fill="none" xmlns="http://www.w3.org/2000/svg">
<path d="M15.75 3.25C16.9125 3.25 17.4937 3.25 17.9706 3.37778C19.2647 3.72453 20.2755 4.73533 20.6222 6.02943C20.75 6.5063 20.75 7.08754 20.75 8.25V19.75C20.75 21.8502 20.75 22.9003 20.3413 23.7025C19.9817 24.4081 19.4081 24.9817 18.7025 25.3413C17.9003 25.75 16.8502 25.75 14.75 25.75H6.75C4.6498 25.75 3.5997 25.75 2.79754 25.3413C2.09193 24.9817 1.51825 24.4081 1.15873 23.7025C0.75 22.9003 0.75 21.8502 0.75 19.75V8.25C0.75 7.08754 0.75 6.5063 0.877778 6.02943C1.22453 4.73533 2.23533 3.72453 3.52943 3.37778C4.0063 3.25 4.58754 3.25 5.75 3.25M7 17L9.5 19.5L15.125 13.875M7.75 5.75H13.75C14.4501 5.75 14.8001 5.75 15.0675 5.61376C15.3027 5.49392 15.4939 5.30269 15.6138 5.06749C15.75 4.8001 15.75 4.45007 15.75 3.75V2.75C15.75 2.04993 15.75 1.6999 15.6138 1.43251C15.4939 1.19731 15.3027 1.00608 15.0675 0.886242C14.8001 0.75 14.4501 0.75 13.75 0.75H7.75C7.04993 0.75 6.6999 0.75 6.43251 0.886242C6.19731 1.00608 6.00608 1.19731 5.88624 1.43251C5.75 1.6999 5.75 2.04993 5.75 2.75V3.75C5.75 4.45007 5.75 4.8001 5.88624 5.06749C6.00608 5.30269 6.19731 5.49392 6.43251 5.61376C6.6999 5.75 7.04993 5.75 7.75 5.75Z" stroke="#FF9549" stroke-width="1.5" stroke-linecap="round" stroke-linejoin="round"/>
</svg>
